<mxfile host="Electron" agent="Mozilla/5.0 (X11; Linux x86_64) AppleWebKit/537.36 (KHTML, like Gecko) draw.io/24.7.17 Chrome/128.0.6613.36 Electron/32.0.1 Safari/537.36" version="24.7.17">
  <diagram id="R2lEEEUBdFMjLlhIrx00" name="Page-1">
    <mxGraphModel dx="752" dy="574" grid="1" gridSize="10" guides="1" tooltips="1" connect="1" arrows="1" fold="1" page="1" pageScale="1" pageWidth="100" pageHeight="100" math="0" shadow="0" extFonts="Permanent Marker^https://fonts.googleapis.com/css?family=Permanent+Marker">
      <root>
        <mxCell id="0" />
        <mxCell id="1" parent="0" />
        <mxCell id="CBCMD9t05b2a7RlSfvx8-5" value="Details" style="rounded=0;whiteSpace=wrap;html=1;hachureGap=4;fillColor=#F2CC8F;strokeColor=#CC6600;fontColor=#575757;strokeWidth=3;fontSize=21;fontStyle=1" parent="1" vertex="1">
          <mxGeometry x="160" y="230" width="160" height="50" as="geometry" />
        </mxCell>
        <mxCell id="CBCMD9t05b2a7RlSfvx8-10" style="edgeStyle=none;curved=1;rounded=0;orthogonalLoop=1;jettySize=auto;html=1;entryX=0.5;entryY=0;entryDx=0;entryDy=0;endArrow=ERoneToMany;startSize=14;endSize=14;sourcePerimeterSpacing=8;targetPerimeterSpacing=8;endFill=0;labelBackgroundColor=#F4F1DE;strokeColor=#00CC00;fontColor=#393C56;startArrow=ERone;startFill=0;strokeWidth=3;exitX=0.5;exitY=1;exitDx=0;exitDy=0;fillColor=#d0cee2;" parent="1" source="CBCMD9t05b2a7RlSfvx8-6" target="CBCMD9t05b2a7RlSfvx8-5" edge="1">
          <mxGeometry relative="1" as="geometry" />
        </mxCell>
        <mxCell id="CBCMD9t05b2a7RlSfvx8-6" value="Entity" style="rounded=0;whiteSpace=wrap;html=1;hachureGap=4;fillColor=#b1ddf0;strokeColor=#10739e;strokeWidth=3;fontColor=#575757;fontSize=21;fontStyle=1" parent="1" vertex="1">
          <mxGeometry x="160" y="60" width="160" height="50" as="geometry" />
        </mxCell>
        <mxCell id="CBCMD9t05b2a7RlSfvx8-11" value="Entity" style="rounded=0;whiteSpace=wrap;html=1;hachureGap=4;fillColor=#b1ddf0;strokeColor=#10739e;strokeWidth=3;fontColor=#575757;fontSize=21;fontStyle=1" parent="1" vertex="1">
          <mxGeometry x="360" y="60" width="160" height="50" as="geometry" />
        </mxCell>
        <mxCell id="CBCMD9t05b2a7RlSfvx8-12" style="edgeStyle=none;curved=1;rounded=0;orthogonalLoop=1;jettySize=auto;html=1;entryX=0.5;entryY=0;entryDx=0;entryDy=0;endArrow=ERzeroToMany;startSize=14;endSize=14;sourcePerimeterSpacing=8;targetPerimeterSpacing=8;endFill=0;labelBackgroundColor=#F4F1DE;strokeColor=#00CC00;fontColor=#393C56;startArrow=ERone;startFill=0;strokeWidth=3;exitX=0.5;exitY=1;exitDx=0;exitDy=0;fillColor=#d0cee2;" parent="1" source="CBCMD9t05b2a7RlSfvx8-11" target="CBCMD9t05b2a7RlSfvx8-13" edge="1">
          <mxGeometry relative="1" as="geometry" />
        </mxCell>
        <mxCell id="CBCMD9t05b2a7RlSfvx8-13" value="Details" style="rounded=0;whiteSpace=wrap;html=1;hachureGap=4;fillColor=#F2CC8F;strokeColor=#CC6600;fontColor=#575757;strokeWidth=3;fontSize=21;fontStyle=1" parent="1" vertex="1">
          <mxGeometry x="360" y="230" width="160" height="50" as="geometry" />
        </mxCell>
        <mxCell id="CBCMD9t05b2a7RlSfvx8-14" value="Entity" style="rounded=0;whiteSpace=wrap;html=1;hachureGap=4;fillColor=#b1ddf0;strokeColor=#10739e;strokeWidth=3;fontColor=#575757;fontSize=21;fontStyle=1" parent="1" vertex="1">
          <mxGeometry x="560" y="60" width="160" height="50" as="geometry" />
        </mxCell>
        <mxCell id="CBCMD9t05b2a7RlSfvx8-15" style="edgeStyle=none;curved=1;rounded=0;orthogonalLoop=1;jettySize=auto;html=1;entryX=0.5;entryY=0;entryDx=0;entryDy=0;endArrow=ERzeroToMany;startSize=14;endSize=14;sourcePerimeterSpacing=8;targetPerimeterSpacing=8;endFill=0;labelBackgroundColor=#F4F1DE;strokeColor=#00CC00;fontColor=#393C56;startArrow=ERzeroToOne;startFill=0;strokeWidth=3;exitX=0.5;exitY=1;exitDx=0;exitDy=0;fillColor=#d0cee2;" parent="1" source="CBCMD9t05b2a7RlSfvx8-14" target="CBCMD9t05b2a7RlSfvx8-16" edge="1">
          <mxGeometry relative="1" as="geometry" />
        </mxCell>
        <mxCell id="CBCMD9t05b2a7RlSfvx8-16" value="Details" style="rounded=0;whiteSpace=wrap;html=1;hachureGap=4;fillColor=#F2CC8F;strokeColor=#CC6600;fontColor=#575757;strokeWidth=3;fontSize=21;fontStyle=1" parent="1" vertex="1">
          <mxGeometry x="560" y="230" width="160" height="50" as="geometry" />
        </mxCell>
        <mxCell id="CBCMD9t05b2a7RlSfvx8-19" value="1-0:0-M" style="shape=note;whiteSpace=wrap;html=1;backgroundOutline=1;fontColor=#000000;darkOpacity=0.05;fillColor=#FFF9B2;strokeColor=none;fillStyle=solid;direction=west;gradientDirection=north;gradientColor=#FFF2A1;shadow=1;size=20;pointerEvents=1;hachureGap=4;strokeWidth=4;fontStyle=1;fontSize=18;" parent="1" vertex="1">
          <mxGeometry x="560" y="300" width="160" height="50" as="geometry" />
        </mxCell>
        <mxCell id="CBCMD9t05b2a7RlSfvx8-20" value="1:0-M" style="shape=note;whiteSpace=wrap;html=1;backgroundOutline=1;fontColor=#000000;darkOpacity=0.05;fillColor=#FFF9B2;strokeColor=none;fillStyle=solid;direction=west;gradientDirection=north;gradientColor=#FFF2A1;shadow=1;size=20;pointerEvents=1;hachureGap=4;strokeWidth=4;fontStyle=1;fontSize=18;" parent="1" vertex="1">
          <mxGeometry x="355" y="300" width="165" height="50" as="geometry" />
        </mxCell>
        <mxCell id="CBCMD9t05b2a7RlSfvx8-21" value="1:1-M" style="shape=note;whiteSpace=wrap;html=1;backgroundOutline=1;fontColor=#000000;darkOpacity=0.05;fillColor=#FFF9B2;strokeColor=none;fillStyle=solid;direction=west;gradientDirection=north;gradientColor=#FFF2A1;shadow=1;size=20;pointerEvents=1;hachureGap=4;strokeWidth=4;fontStyle=1;fontSize=18;" parent="1" vertex="1">
          <mxGeometry x="160" y="300" width="160" height="50" as="geometry" />
        </mxCell>
      </root>
    </mxGraphModel>
  </diagram>
</mxfile>
